<svg width="15" height="14" viewBox="0 0 15 14" fill="none" xmlns="http://www.w3.org/2000/svg">
<path d="M7.5 0C7.86166 0 8.2085 0.1475 8.46424 0.41005C8.71997 0.672601 8.86364 1.0287 8.86364 1.4C8.86364 1.918 8.59091 2.373 8.18182 2.611V3.5H8.86364C10.1294 3.5 11.3434 4.01625 12.2385 4.93518C13.1335 5.8541 13.6364 7.10044 13.6364 8.4H14.3182C14.499 8.4 14.6724 8.47375 14.8003 8.60503C14.9282 8.7363 15 8.91435 15 9.1V11.2C15 11.3857 14.9282 11.5637 14.8003 11.695C14.6724 11.8263 14.499 11.9 14.3182 11.9H13.6364V12.6C13.6364 12.9713 13.4927 13.3274 13.237 13.5899C12.9812 13.8525 12.6344 14 12.2727 14H2.72727C2.36561 14 2.01877 13.8525 1.76304 13.5899C1.5073 13.3274 1.36364 12.9713 1.36364 12.6V11.9H0.681818C0.500989 11.9 0.327566 11.8263 0.1997 11.695C0.0718342 11.5637 0 11.3857 0 11.2V9.1C0 8.91435 0.0718342 8.7363 0.1997 8.60503C0.327566 8.47375 0.500989 8.4 0.681818 8.4H1.36364C1.36364 7.10044 1.86648 5.8541 2.76154 4.93518C3.6566 4.01625 4.87056 3.5 6.13636 3.5H6.81818V2.611C6.40909 2.373 6.13636 1.918 6.13636 1.4C6.13636 1.0287 6.28003 0.672601 6.53576 0.41005C6.7915 0.1475 7.13834 0 7.5 0ZM4.43182 7.7C3.97974 7.7 3.54619 7.88437 3.22652 8.21256C2.90686 8.54075 2.72727 8.98587 2.72727 9.45C2.72727 9.91413 2.90686 10.3592 3.22652 10.6874C3.54619 11.0156 3.97974 11.2 4.43182 11.2C4.88389 11.2 5.31745 11.0156 5.63711 10.6874C5.95678 10.3592 6.13636 9.91413 6.13636 9.45C6.13636 8.98587 5.95678 8.54075 5.63711 8.21256C5.31745 7.88437 4.88389 7.7 4.43182 7.7ZM10.5682 7.7C10.1161 7.7 9.68255 7.88437 9.36289 8.21256C9.04322 8.54075 8.86364 8.98587 8.86364 9.45C8.86364 9.91413 9.04322 10.3592 9.36289 10.6874C9.68255 11.0156 10.1161 11.2 10.5682 11.2C11.0203 11.2 11.4538 11.0156 11.7735 10.6874C12.0931 10.3592 12.2727 9.91413 12.2727 9.45C12.2727 8.98587 12.0931 8.54075 11.7735 8.21256C11.4538 7.88437 11.0203 7.7 10.5682 7.7Z" fill="#677176"/>
</svg>
